;Layer: Drill PTH
;EasyEDA v6.2.46, 2019-11-08T21:27:59+07:00
;648d43b609d64f9b9fe3d4d00a8c37d9,e5c1abbfa1e54b71a98531a1dec44753,10
;Gerber Generator version 0.2
M48
METRIC,LZ,000.000
;Holesize 1 = 0.510 METRIC
T01C0.510
;Holesize 2 = 0.701 METRIC
T02C0.701
;Holesize 3 = 0.900 METRIC
T03C0.900
;Holesize 4 = 0.901 METRIC
T04C0.901
;Holesize 5 = 0.915 METRIC
T05C0.915
;Holesize 6 = 1.000 METRIC
T06C1.000
;Holesize 7 = 1.600 METRIC
T07C1.600
;Holesize 8 = 2.301 METRIC
T08C2.301
%
G05
G90
T01
X+026875Y+029446
X+026304Y+025801
X+034798Y+065278
X+062217Y+045664
X+054841Y+053040
X+024193Y+048826
X+042765Y+021666
X+014991Y+051348
X+103647Y+046471
X+073583Y+051485
X+018247Y+066603
X+060629Y+051485
X+018816Y+068945
X+053185Y+034005
X+082125Y+041648
X+072953Y+041361
X+077383Y+045958
X+061765Y+038221
X+050985Y+050403
X+059441Y+038209
X+052176Y+048404
X+067243Y+056789
X+071927Y+045623
X+038160Y+026466
X+070175Y+051160
X+080665Y+052870
X+058742Y+056563
X+015288Y+068064
X+044231Y+048326
X+047233Y+053647
X+064856Y+041358
X+063014Y+055646
X+016939Y+068869
X+014351Y+044538
X+023774Y+061229
T02
X+028321Y+034036
X+030861Y+034036
X+019939Y+034036
X+022479Y+034036
X+023151Y+041237
X+018250Y+041237
T03
X+072898Y+018933
X+072898Y+026532
T04
X+046482Y+066167
X+049022Y+066167
X+073025Y+066294
X+070485Y+066294
X+097536Y+066294
X+094996Y+066294
X+046101Y+048895
X+048641Y+048895
X+097536Y+048895
X+094996Y+048895
X+046482Y+031496
X+049022Y+031496
X+097409Y+031623
X+094869Y+031623
T05
X+031829Y+068199
X+033829Y+068199
X+035829Y+068199
X+037829Y+068199
X+039829Y+068199
X+041829Y+068199
X+043829Y+068199
X+029830Y+068199
T06
X+015308Y+010307
X+015308Y+012806
X+013308Y+012806
X+013308Y+010307
X+013589Y+034163
X+005969Y+034163
X+063627Y+030988
X+066167Y+030988
X+068707Y+030988
X+071247Y+030988
X+073787Y+030988
X+076327Y+030988
X+078867Y+030988
X+081407Y+030988
X+081407Y+038608
X+078867Y+038608
X+076327Y+038608
X+073787Y+038608
X+071247Y+038608
X+068707Y+038608
X+066167Y+038608
X+063627Y+038608
T07
X+084763Y+010130
X+084763Y+006379
X+059762Y+010130
T08
X+010599Y+005536
X+010599Y+017577
M30
