G04 Layer: TopLayer*
G04 EasyEDA v6.2.46, 2019-11-10T21:10:00+07:00*
G04 036f7757b27e478886c894ae7df38c4b,e5c1abbfa1e54b71a98531a1dec44753,10*
G04 Gerber Generator version 0.2*
G04 Scale: 100 percent, Rotated: No, Reflected: No *
G04 Dimensions in millimeters *
G04 leading zeros omitted , absolute positions ,3 integer and 3 decimal *
%FSLAX33Y33*%
%MOMM*%
G90*
G71D02*

%ADD11C,0.510007*%
%ADD12C,0.599999*%
%ADD13C,1.020013*%
%ADD14R,1.160018X1.450010*%
%ADD15R,1.450010X1.160018*%
%ADD16R,1.054100X0.825500*%
%ADD17R,1.375004X0.899998*%
%ADD18R,0.799998X3.499866*%
%ADD19R,3.499866X0.799998*%
%ADD20R,1.499997X2.399995*%
%ADD21R,2.250008X1.399997*%
%ADD22R,2.199996X1.199998*%
%ADD23R,6.499987X6.000013*%
%ADD24R,1.099998X2.499995*%
%ADD25R,3.199994X3.199994*%
%ADD26R,0.550012X0.999998*%
%ADD27C,1.299997*%
%ADD28C,1.599997*%
%ADD29C,1.651000*%
%ADD30C,1.778000*%
%ADD31C,1.524000*%
%ADD32C,2.999994*%
%ADD33R,1.524000X1.524000*%
%ADD34C,2.499995*%

%LPD*%
G54D11*
G01X26797Y27609D02*
G01X26797Y29367D01*
G01X26875Y29446D01*
G01X28067Y27609D02*
G01X28067Y26763D01*
G01X27104Y25801D01*
G01X26304Y25801D01*
G01X52011Y41427D02*
G01X60711Y41427D01*
G01X62738Y43456D01*
G01X43426Y41427D02*
G01X52011Y41427D01*
G01X56357Y25120D02*
G01X52011Y29464D01*
G01X52011Y41427D01*
G01X24813Y69448D02*
G01X20812Y65448D01*
G01X13980Y65448D01*
G01X9217Y60683D01*
G01X9217Y49911D01*
G01X33268Y62336D02*
G01X33268Y64734D01*
G01X34798Y65278D02*
G01X34254Y64734D01*
G01X33268Y64734D01*
G01X67713Y58859D02*
G01X68399Y58173D01*
G01X68399Y56309D01*
G01X67818Y55727D01*
G01X67818Y53571D01*
G01X92003Y41427D02*
G01X91846Y41427D01*
G01X81407Y30988D01*
G01X33268Y59938D02*
G01X43426Y59938D01*
G01X43426Y58859D02*
G01X67713Y58859D01*
G01X43426Y59938D02*
G01X43426Y60706D01*
G01X43426Y59781D02*
G01X43426Y59938D01*
G01X33268Y62336D02*
G01X33268Y59938D01*
G01X9217Y49911D02*
G01X11463Y49911D01*
G01X15930Y45443D01*
G01X23009Y45443D01*
G01X28321Y40132D01*
G01X57531Y25120D02*
G01X56357Y25120D01*
G01X28321Y34036D02*
G01X33228Y29128D01*
G01X33228Y27691D01*
G01X13309Y10307D02*
G01X14777Y8839D01*
G01X18290Y8839D01*
G01X20071Y10619D01*
G01X25666Y10619D01*
G01X26047Y10238D01*
G01X43741Y10238D01*
G01X44810Y11308D01*
G01X24813Y69448D02*
G01X25062Y69697D01*
G01X36332Y69697D01*
G01X37830Y68199D01*
G01X24813Y71120D02*
G01X24813Y69448D01*
G01X43426Y43273D02*
G01X43426Y41427D01*
G01X92003Y43273D02*
G01X92003Y60706D01*
G01X92003Y42351D02*
G01X92003Y43273D01*
G01X92003Y42351D02*
G01X92003Y41427D01*
G01X57531Y25120D02*
G01X58056Y24594D01*
G01X75016Y24594D01*
G01X81407Y30988D01*
G01X81407Y30988D02*
G01X84703Y27691D01*
G01X92003Y27691D01*
G01X67713Y60706D02*
G01X67713Y58859D01*
G01X44810Y11308D02*
G01X47208Y11308D01*
G01X47208Y11308D02*
G01X47927Y12026D01*
G01X82864Y12026D01*
G01X84762Y10129D01*
G01X43426Y59781D02*
G01X43426Y58859D01*
G01X33228Y27691D02*
G01X43426Y27691D01*
G01X33147Y27609D02*
G01X33228Y27691D01*
G01X92003Y25844D02*
G01X92003Y27691D01*
G01X28321Y40132D02*
G01X28321Y34036D01*
G01X28321Y40132D02*
G01X28580Y40132D01*
G01X30353Y40132D02*
G01X28580Y40132D01*
G01X62738Y43456D02*
G01X64008Y43456D01*
G01X64008Y43456D02*
G01X65278Y43456D01*
G01X43426Y25844D02*
G01X43426Y27691D01*
G01X3108Y26492D02*
G01X4856Y26492D01*
G01X4856Y26492D02*
G01X12527Y34163D01*
G01X13589Y34163D01*
G01X24257Y27609D02*
G01X18249Y33616D01*
G01X18249Y41236D01*
G01X9217Y47371D02*
G01X9217Y48641D01*
G01X9217Y46101D02*
G01X9217Y47371D01*
G01X66548Y45252D02*
G01X66139Y45664D01*
G01X62217Y45664D01*
G01X66548Y45252D02*
G01X68646Y45252D01*
G01X70617Y47226D01*
G01X78999Y47226D01*
G01X82257Y43967D01*
G01X87734Y43967D01*
G01X88831Y45064D01*
G01X66548Y43456D02*
G01X66548Y45252D01*
G01X54843Y52664D02*
G01X54419Y52237D01*
G01X54419Y51490D01*
G01X69088Y53571D02*
G01X69088Y52506D01*
G01X68290Y51709D01*
G01X62334Y51709D01*
G01X61379Y52664D01*
G01X54843Y52664D01*
G01X54841Y53040D02*
G01X54843Y53035D01*
G01X54843Y52664D01*
G01X24193Y48826D02*
G01X25024Y49657D01*
G01X26416Y49657D01*
G01X56085Y50200D02*
G01X55753Y50200D01*
G01X56085Y50200D02*
G01X56421Y50200D01*
G01X3736Y46101D02*
G01X9217Y46101D01*
G01X56085Y48915D02*
G01X55753Y48582D01*
G01X55753Y47625D01*
G01X56085Y48915D02*
G01X56421Y48915D01*
G01X55753Y48915D02*
G01X56085Y48915D01*
G01X88831Y45064D02*
G01X88889Y45123D01*
G01X88889Y46355D01*
G01X88082Y45064D02*
G01X88831Y45064D01*
G01X29337Y27609D02*
G01X29337Y28879D01*
G01X25527Y32689D01*
G01X25527Y36057D01*
G01X18600Y42984D01*
G01X12334Y42984D01*
G01X9217Y46101D01*
G01X55753Y51490D02*
G01X54419Y51490D01*
G01X24820Y53223D02*
G01X32616Y53223D01*
G01X33279Y53883D01*
G01X42765Y21666D02*
G01X33147Y21666D01*
G01X29337Y24638D02*
G01X30899Y24638D01*
G01X33147Y22390D01*
G01X33147Y21666D01*
G01X88851Y47640D02*
G01X88082Y47640D01*
G01X89415Y48930D02*
G01X89415Y48204D01*
G01X88851Y47640D01*
G01X88851Y47640D02*
G01X89415Y47640D01*
G01X88082Y48930D02*
G01X89415Y48930D01*
G01X88750Y46355D02*
G01X88889Y46355D01*
G01X88889Y46355D02*
G01X89415Y46355D01*
G01X88082Y46355D02*
G01X88750Y46355D01*
G01X89415Y47640D02*
G01X89415Y46355D01*
G01X56560Y50200D02*
G01X57086Y50726D01*
G01X57086Y51490D01*
G01X56421Y50200D02*
G01X56560Y50200D01*
G01X56560Y50200D02*
G01X57086Y50200D01*
G01X55753Y51490D02*
G01X57086Y51490D01*
G01X56421Y48915D02*
G01X56565Y48915D01*
G01X57086Y49436D01*
G01X57086Y50200D01*
G01X24820Y53223D02*
G01X24820Y52999D01*
G01X24820Y55118D02*
G01X24820Y53223D01*
G01X33279Y56281D02*
G01X33279Y53883D01*
G01X29337Y24638D02*
G01X29337Y27609D01*
G01X10861Y24130D02*
G01X28829Y24130D01*
G01X29337Y24638D01*
G01X24820Y52999D02*
G01X24820Y52478D01*
G01X26416Y50883D01*
G01X14820Y53223D02*
G01X15044Y52999D01*
G01X24820Y52999D01*
G01X14820Y55120D02*
G01X14820Y53223D01*
G01X26416Y49657D02*
G01X26416Y50883D01*
G01X12827Y55118D02*
G01X12827Y53220D01*
G01X12827Y53220D02*
G01X13116Y53220D01*
G01X14991Y51348D01*
G01X73499Y51569D02*
G01X71033Y49100D01*
G01X69938Y49100D01*
G01X68798Y47960D01*
G01X60670Y47960D01*
G01X60332Y47625D01*
G01X73499Y51569D02*
G01X73583Y51485D01*
G01X74168Y53571D02*
G01X74168Y52235D01*
G01X73499Y51569D01*
G01X100403Y43273D02*
G01X100403Y45123D01*
G01X103647Y46471D02*
G01X101754Y46471D01*
G01X100403Y45123D01*
G01X58999Y47625D02*
G01X60332Y47625D01*
G01X72898Y53571D02*
G01X72898Y52453D01*
G01X71330Y50886D01*
G01X71330Y50680D01*
G01X70652Y50002D01*
G01X69565Y50002D01*
G01X68478Y48915D01*
G01X58999Y48915D01*
G01X51826Y25844D02*
G01X51826Y27691D01*
G01X51826Y27691D02*
G01X50970Y28547D01*
G01X50970Y32133D01*
G01X41894Y41206D01*
G01X41894Y44767D01*
G01X43568Y46441D01*
G01X56702Y46441D01*
G01X57650Y47388D01*
G01X57650Y48409D01*
G01X58155Y48915D01*
G01X58999Y48915D01*
G01X18816Y68945D02*
G01X18247Y68376D01*
G01X18247Y66603D01*
G01X18816Y71120D02*
G01X18816Y68945D01*
G01X60629Y51485D02*
G01X60337Y51485D01*
G01X60332Y51490D01*
G01X58999Y51490D02*
G01X60332Y51490D01*
G01X56388Y40487D02*
G01X53451Y40487D01*
G01X53080Y40116D01*
G01X53080Y34109D01*
G01X53185Y34005D01*
G01X56388Y39116D02*
G01X56388Y40487D01*
G01X79248Y43456D02*
G01X80103Y43456D01*
G01X81912Y41648D01*
G01X82125Y41648D01*
G01X72898Y43456D02*
G01X72898Y41417D01*
G01X72953Y41361D01*
G01X74168Y43456D02*
G01X74168Y44396D01*
G01X75730Y45958D01*
G01X77383Y45958D01*
G01X75438Y43456D02*
G01X75438Y42189D01*
G01X73350Y40098D01*
G01X59695Y40098D01*
G01X58277Y38681D01*
G01X58277Y34051D01*
G01X62849Y29479D01*
G01X72278Y29479D01*
G01X73787Y30988D01*
G01X32125Y44333D02*
G01X38196Y50403D01*
G01X50985Y50403D01*
G01X30353Y44333D02*
G01X32125Y44333D01*
G01X61765Y38221D02*
G01X62915Y37071D01*
G01X79870Y37071D01*
G01X81407Y38608D01*
G01X25527Y27609D02*
G01X25527Y30988D01*
G01X22479Y34036D01*
G01X35829Y66895D02*
G01X37134Y66895D01*
G01X39377Y64650D01*
G01X63456Y64650D01*
G01X70993Y72186D01*
G01X42461Y53340D02*
G01X36763Y59037D01*
G01X32842Y59037D01*
G01X32161Y59717D01*
G01X32161Y65044D01*
G01X33832Y66715D01*
G01X35354Y66715D01*
G01X35532Y66895D01*
G01X35829Y66895D01*
G01X35829Y66895D02*
G01X35829Y68199D01*
G01X94869Y71501D02*
G01X94869Y72872D01*
G01X103738Y48895D02*
G01X103738Y66916D01*
G01X97782Y72872D01*
G01X94869Y72872D01*
G01X103738Y48895D02*
G01X104350Y48895D01*
G01X103124Y48895D02*
G01X103738Y48895D01*
G01X43688Y53340D02*
G01X42461Y53340D01*
G01X40132Y47701D02*
G01X40132Y48387D01*
G01X40132Y47701D02*
G01X40132Y47015D01*
G01X40132Y47015D02*
G01X40132Y37249D01*
G01X38252Y35369D01*
G01X38252Y31229D01*
G01X39382Y30099D01*
G01X39624Y30099D01*
G01X70993Y72186D02*
G01X70993Y72872D01*
G01X70993Y71501D02*
G01X70993Y72186D01*
G01X38755Y11297D02*
G01X36357Y11297D01*
G01X16776Y11775D02*
G01X35882Y11775D01*
G01X36357Y11297D01*
G01X48788Y18933D02*
G01X48788Y24917D01*
G01X43604Y30099D01*
G01X39624Y30099D01*
G01X16776Y11775D02*
G01X15308Y10307D01*
G01X4861Y21767D02*
G01X4861Y20238D01*
G01X10182Y14917D01*
G01X15328Y14917D01*
G01X16776Y13469D01*
G01X16776Y11775D01*
G01X39954Y11297D02*
G01X38755Y11297D01*
G01X39954Y11297D02*
G01X41153Y11297D01*
G01X93809Y71501D02*
G01X92435Y72872D01*
G01X70993Y72872D01*
G01X94869Y71501D02*
G01X93809Y71501D01*
G01X104394Y27940D02*
G01X105765Y27940D01*
G01X104350Y48895D02*
G01X105765Y47480D01*
G01X105765Y27940D01*
G01X48788Y18933D02*
G01X41153Y11297D01*
G01X72898Y18933D02*
G01X48788Y18933D01*
G01X104394Y27940D02*
G01X104394Y26713D01*
G01X104394Y26713D02*
G01X96613Y18933D01*
G01X72898Y18933D01*
G01X3114Y21767D02*
G01X4861Y21767D01*
G01X19177Y48133D02*
G01X15902Y48133D01*
G01X10815Y53220D01*
G01X10815Y55118D02*
G01X10815Y53220D01*
G01X83502Y48930D02*
G01X83502Y49316D01*
G01X81107Y51711D01*
G01X80187Y51711D01*
G01X79509Y52390D01*
G01X79509Y53309D01*
G01X79248Y53571D01*
G01X79248Y53571D02*
G01X79248Y60576D01*
G01X77271Y62552D01*
G01X51826Y62552D01*
G01X51826Y60706D02*
G01X51826Y62552D01*
G01X84836Y48930D02*
G01X83502Y48930D01*
G01X100403Y60706D02*
G01X100403Y62552D01*
G01X84836Y46355D02*
G01X86169Y46355D01*
G01X86169Y46355D02*
G01X86169Y57863D01*
G01X90858Y62552D01*
G01X100403Y62552D01*
G01X76708Y53571D02*
G01X76708Y52583D01*
G01X82936Y46355D01*
G01X84836Y46355D01*
G01X52176Y48404D02*
G01X52176Y52011D01*
G01X57912Y57746D01*
G01X66286Y57746D01*
G01X67243Y56789D01*
G01X71628Y43456D02*
G01X71628Y45323D01*
G01X71927Y45623D01*
G01X59441Y38209D02*
G01X66167Y31483D01*
G01X66167Y30988D01*
G01X38160Y26466D02*
G01X37670Y25976D01*
G01X32715Y25976D01*
G01X31877Y26812D01*
G01X31877Y27609D01*
G01X12816Y71120D02*
G01X12816Y73017D01*
G01X39829Y68199D02*
G01X35011Y73019D01*
G01X12816Y73019D01*
G01X12816Y73017D01*
G01X26416Y47625D02*
G01X25044Y47625D01*
G01X25044Y47625D02*
G01X22943Y47625D01*
G01X22435Y48133D01*
G01X26416Y47625D02*
G01X26416Y45529D01*
G01X30335Y41610D01*
G01X31729Y41610D01*
G01X36189Y37150D01*
G01X36189Y31295D01*
G01X38613Y28872D01*
G01X43555Y28872D01*
G01X44970Y27457D01*
G01X44970Y22123D01*
G01X42895Y20045D01*
G01X30269Y20045D01*
G01X29337Y20977D01*
G01X29337Y21666D01*
G01X21209Y48133D02*
G01X22435Y48133D01*
G01X58999Y50200D02*
G01X68486Y50200D01*
G01X69446Y51160D01*
G01X70175Y51160D01*
G01X70175Y51160D02*
G01X71628Y52613D01*
G01X71628Y53571D01*
G01X100403Y25844D02*
G01X98381Y25844D01*
G01X93207Y31018D01*
G01X93207Y40294D01*
G01X93398Y40487D01*
G01X93398Y49453D01*
G01X101828Y57884D01*
G01X101828Y62575D01*
G01X100949Y63454D01*
G01X90477Y63454D01*
G01X80665Y53644D01*
G01X80665Y52870D01*
G01X76708Y43456D02*
G01X76708Y42453D01*
G01X77774Y41386D01*
G01X80678Y41386D01*
G01X82867Y39194D01*
G01X82867Y37528D01*
G01X76327Y30988D01*
G01X77978Y43456D02*
G01X77978Y44584D01*
G01X78648Y45252D01*
G01X79695Y45252D01*
G01X82141Y42804D01*
G01X82603Y42804D01*
G01X83840Y41569D01*
G01X83840Y35961D01*
G01X78867Y30988D01*
G01X65278Y53571D02*
G01X65278Y55209D01*
G01X63647Y56840D01*
G01X59019Y56840D01*
G01X58742Y56563D01*
G01X14813Y68539D02*
G01X15288Y68064D01*
G01X14813Y69225D02*
G01X14813Y68539D01*
G01X3736Y48641D02*
G01X3091Y48641D01*
G01X2283Y49448D01*
G01X2283Y56471D01*
G01X14353Y68539D01*
G01X14813Y68539D01*
G01X14813Y71122D02*
G01X14813Y69225D01*
G01X59563Y25781D02*
G01X60736Y25781D01*
G01X72898Y26532D02*
G01X61488Y26532D01*
G01X60736Y25781D01*
G01X54356Y39116D02*
G01X54356Y30675D01*
G01X57531Y27500D01*
G01X57531Y26441D02*
G01X57531Y27500D01*
G01X76113Y58859D02*
G01X77978Y56995D01*
G01X77978Y53571D01*
G01X76113Y60706D02*
G01X76113Y58859D01*
G01X84836Y47640D02*
G01X82925Y47640D01*
G01X77978Y52588D01*
G01X77978Y53571D01*
G01X75897Y52085D02*
G01X72011Y48199D01*
G01X70312Y48199D01*
G01X68935Y46819D01*
G01X61539Y46819D01*
G01X59839Y45123D01*
G01X51826Y45123D01*
G01X75897Y52085D02*
G01X75438Y52547D01*
G01X75438Y53571D01*
G01X83502Y45064D02*
G01X82920Y45064D01*
G01X75897Y52085D01*
G01X51826Y43273D02*
G01X51826Y45123D01*
G01X84836Y45064D02*
G01X83502Y45064D01*
G01X42164Y48387D02*
G01X43390Y48387D01*
G01X44231Y48326D02*
G01X43454Y48326D01*
G01X43390Y48387D01*
G01X73025Y66294D02*
G01X73025Y66294D01*
G01X73025Y71501D01*
G01X97536Y66294D02*
G01X96901Y66929D01*
G01X96901Y71501D01*
G01X46946Y53340D02*
G01X46946Y53360D01*
G01X47233Y53647D01*
G01X45720Y53340D02*
G01X46946Y53340D01*
G01X97536Y48895D02*
G01X101092Y48895D01*
G01X39624Y32131D02*
G01X40995Y32131D01*
G01X46482Y31496D02*
G01X41630Y31496D01*
G01X40995Y32131D01*
G01X104394Y29972D02*
G01X104394Y31198D01*
G01X97409Y31623D02*
G01X103969Y31623D01*
G01X104394Y31198D01*
G01X70358Y43456D02*
G01X70358Y42433D01*
G01X69283Y41358D01*
G01X64856Y41358D01*
G01X16814Y68869D02*
G01X16814Y67952D01*
G01X15768Y66908D01*
G01X14165Y66908D01*
G01X3736Y56479D01*
G01X3736Y49911D01*
G01X16814Y68869D02*
G01X16939Y68869D01*
G01X63014Y55646D02*
G01X64008Y54653D01*
G01X64008Y53571D01*
G01X16814Y69225D02*
G01X16814Y68869D01*
G01X16814Y71120D02*
G01X16814Y69225D01*
G01X14351Y44538D02*
G01X21983Y44538D01*
G01X26748Y39776D01*
G01X26748Y33703D01*
G01X30607Y29845D01*
G01X30607Y27609D01*
G01X10815Y73017D02*
G01X11719Y73921D01*
G01X36108Y73921D01*
G01X41831Y68199D01*
G01X10815Y71120D02*
G01X10815Y73017D01*
G01X18823Y55118D02*
G01X18823Y58033D01*
G01X28989Y68199D01*
G01X29829Y68199D01*
G01X23774Y61229D02*
G01X20820Y58275D01*
G01X20820Y57015D01*
G01X20820Y55118D02*
G01X20820Y57015D01*
G01X31831Y68199D02*
G01X31831Y67650D01*
G01X22824Y58643D01*
G01X22824Y55118D01*
G01X59763Y10130D02*
G01X61639Y8255D01*
G01X94234Y8255D01*
G01X95885Y9906D01*
G01X95818Y9972D01*
G01X95818Y13232D01*
G01X95818Y13232D02*
G01X96048Y13462D01*
G01X102235Y13462D01*
G01X95818Y16232D02*
G01X95818Y18933D01*
G01X94869Y16232D02*
G01X94869Y15240D01*
G01X94361Y14732D01*
G01X85979Y14732D01*
G01X84836Y13589D01*
G01X84836Y10202D01*
G01X84763Y10130D01*
G01X102235Y15494D02*
G01X101473Y14732D01*
G01X94361Y14732D01*
G01X93919Y16232D02*
G01X93919Y18933D01*
G54D12*
G01X4197Y49911D02*
G01X3277Y49911D01*
G01X4197Y48641D02*
G01X3277Y48641D01*
G01X4197Y47371D02*
G01X3277Y47371D01*
G01X4197Y46101D02*
G01X3277Y46101D01*
G01X9676Y49911D02*
G01X8756Y49911D01*
G01X9676Y48641D02*
G01X8756Y48641D01*
G01X9676Y47371D02*
G01X8756Y47371D01*
G01X9676Y46101D02*
G01X8756Y46101D01*
G01X79248Y54421D02*
G01X79248Y52721D01*
G01X77978Y54421D02*
G01X77978Y52721D01*
G01X76708Y54421D02*
G01X76708Y52721D01*
G01X75438Y54421D02*
G01X75438Y52721D01*
G01X74168Y54421D02*
G01X74168Y52721D01*
G01X72898Y54421D02*
G01X72898Y52721D01*
G01X71628Y54421D02*
G01X71628Y52721D01*
G01X70358Y54421D02*
G01X70358Y52721D01*
G01X69088Y54421D02*
G01X69088Y52721D01*
G01X67818Y54421D02*
G01X67818Y52721D01*
G01X66548Y54421D02*
G01X66548Y52721D01*
G01X65278Y54421D02*
G01X65278Y52721D01*
G01X64008Y54421D02*
G01X64008Y52721D01*
G01X62738Y54421D02*
G01X62738Y52721D01*
G01X79248Y44306D02*
G01X79248Y42606D01*
G01X77978Y44306D02*
G01X77978Y42606D01*
G01X76708Y44306D02*
G01X76708Y42606D01*
G01X75438Y44306D02*
G01X75438Y42606D01*
G01X74168Y44306D02*
G01X74168Y42606D01*
G01X72898Y44306D02*
G01X72898Y42606D01*
G01X71628Y44306D02*
G01X71628Y42606D01*
G01X70358Y44306D02*
G01X70358Y42606D01*
G01X69088Y44306D02*
G01X69088Y42606D01*
G01X67818Y44306D02*
G01X67818Y42606D01*
G01X66548Y44306D02*
G01X66548Y42606D01*
G01X65278Y44306D02*
G01X65278Y42606D01*
G01X64008Y44306D02*
G01X64008Y42606D01*
G01X62738Y44306D02*
G01X62738Y42606D01*
G01X24257Y22266D02*
G01X24257Y21066D01*
G01X25527Y22266D02*
G01X25527Y21066D01*
G01X26797Y22266D02*
G01X26797Y21066D01*
G01X28067Y22266D02*
G01X28067Y21066D01*
G01X29337Y22266D02*
G01X29337Y21066D01*
G01X30607Y22266D02*
G01X30607Y21066D01*
G01X31877Y22266D02*
G01X31877Y21066D01*
G01X33147Y22266D02*
G01X33147Y21066D01*
G01X24257Y28209D02*
G01X24257Y27009D01*
G01X25527Y28209D02*
G01X25527Y27009D01*
G01X26797Y28209D02*
G01X26797Y27009D01*
G01X28067Y28209D02*
G01X28067Y27009D01*
G01X29337Y28209D02*
G01X29337Y27009D01*
G01X30607Y28209D02*
G01X30607Y27009D01*
G01X31877Y28209D02*
G01X31877Y27009D01*
G01X33147Y28209D02*
G01X33147Y27009D01*
G54D14*
G01X19177Y48133D03*
G01X21209Y48133D03*
G54D15*
G01X26416Y47625D03*
G01X26416Y49657D03*
G54D16*
G01X59563Y25781D03*
G01X57531Y25120D03*
G01X57531Y26441D03*
G54D17*
G01X84836Y48930D03*
G01X84836Y47640D03*
G01X84836Y46355D03*
G01X84836Y45064D03*
G01X88082Y45064D03*
G01X88082Y46355D03*
G01X88082Y47640D03*
G01X88082Y48930D03*
G01X58999Y47625D03*
G01X58999Y48915D03*
G01X58999Y50200D03*
G01X58999Y51490D03*
G01X55753Y51490D03*
G01X55753Y50200D03*
G01X55753Y48915D03*
G01X55753Y47625D03*
G54D14*
G01X56388Y39116D03*
G01X54356Y39116D03*
G54D18*
G01X33279Y56281D03*
G01X33268Y62336D03*
G54D19*
G01X38755Y11297D03*
G01X44810Y11308D03*
G54D14*
G01X42164Y48387D03*
G01X40132Y48387D03*
G01X73025Y71501D03*
G01X70993Y71501D03*
G01X96901Y71501D03*
G01X94869Y71501D03*
G01X45720Y53340D03*
G01X43688Y53340D03*
G01X101092Y48895D03*
G01X103124Y48895D03*
G54D15*
G01X39624Y32131D03*
G01X39624Y30099D03*
G01X104394Y29972D03*
G01X104394Y27940D03*
G54D20*
G01X43425Y60706D03*
G01X51824Y60706D03*
G01X67713Y60706D03*
G01X76113Y60706D03*
G01X92002Y60706D03*
G01X100402Y60706D03*
G01X43425Y43275D03*
G01X51824Y43275D03*
G01X92002Y25844D03*
G01X100402Y25844D03*
G01X43425Y25844D03*
G01X51824Y25844D03*
G01X92002Y43275D03*
G01X100402Y43275D03*
G54D21*
G01X30353Y44332D03*
G01X37153Y44332D03*
G01X30353Y40132D03*
G01X37153Y40132D03*
G54D22*
G01X3114Y21767D03*
G01X3108Y26492D03*
G54D23*
G01X10861Y24130D03*
G54D24*
G01X10815Y55118D03*
G01X12826Y55118D03*
G01X14819Y55120D03*
G01X16828Y55119D03*
G01X18824Y55118D03*
G01X20820Y55119D03*
G01X22824Y55118D03*
G01X24820Y55119D03*
G01X10815Y71120D03*
G36*
G01X12265Y69870D02*
G01X12265Y72369D01*
G01X13365Y72369D01*
G01X13365Y69870D01*
G01X12265Y69870D01*
G37*
G01X14814Y71122D03*
G01X16813Y71121D03*
G01X18815Y71120D03*
G01X20815Y71121D03*
G01X22815Y71120D03*
G01X24813Y71120D03*
G54D25*
G01X15641Y62992D03*
G54D15*
G01X102235Y13462D03*
G01X102235Y15494D03*
G54D26*
G01X95818Y13232D03*
G01X93919Y13232D03*
G01X93919Y16232D03*
G01X94869Y16232D03*
G01X95818Y16232D03*
G54D27*
G01X28321Y34036D03*
G01X30861Y34036D03*
G01X19939Y34036D03*
G01X22479Y34036D03*
G54D28*
G01X23151Y41237D03*
G01X18250Y41237D03*
G54D29*
G01X46482Y66167D03*
G01X49022Y66167D03*
G01X73025Y66294D03*
G01X70485Y66294D03*
G01X97536Y66294D03*
G01X94996Y66294D03*
G01X46101Y48895D03*
G01X48641Y48895D03*
G01X97536Y48895D03*
G01X94996Y48895D03*
G01X46482Y31496D03*
G01X49022Y31496D03*
G01X97409Y31623D03*
G01X94869Y31623D03*
G54D28*
G01X13589Y34163D03*
G01X5969Y34163D03*
G01X63627Y30988D03*
G01X66167Y30988D03*
G01X68707Y30988D03*
G01X71247Y30988D03*
G01X73787Y30988D03*
G01X76327Y30988D03*
G01X78867Y30988D03*
G01X81407Y30988D03*
G01X81407Y38608D03*
G01X78867Y38608D03*
G01X76327Y38608D03*
G01X73787Y38608D03*
G01X71247Y38608D03*
G01X68707Y38608D03*
G01X66167Y38608D03*
G01X63627Y38608D03*
G54D30*
G01X72898Y18933D03*
G01X72898Y26532D03*
G54D31*
G01X15308Y10306D03*
G01X15308Y12806D03*
G01X13308Y12806D03*
G01X13308Y10306D03*
G54D32*
G01X10598Y5536D03*
G01X10598Y17576D03*
G54D31*
G01X31831Y68199D03*
G01X33831Y68199D03*
G01X35831Y68199D03*
G01X37831Y68199D03*
G01X39831Y68199D03*
G01X41831Y68199D03*
G54D33*
G01X43831Y68199D03*
G54D31*
G01X29831Y68199D03*
G54D34*
G01X84763Y10130D03*
G01X84763Y6380D03*
G01X59763Y10130D03*
G54D13*
G01X26875Y29446D03*
G01X26304Y25801D03*
G01X34798Y65278D03*
G01X62217Y45664D03*
G01X54841Y53040D03*
G01X24193Y48826D03*
G01X42765Y21666D03*
G01X14991Y51348D03*
G01X103647Y46471D03*
G01X73583Y51485D03*
G01X18247Y66603D03*
G01X60629Y51485D03*
G01X18816Y68945D03*
G01X53185Y34005D03*
G01X82125Y41648D03*
G01X72953Y41361D03*
G01X77383Y45958D03*
G01X61765Y38221D03*
G01X50985Y50403D03*
G01X59441Y38209D03*
G01X52176Y48404D03*
G01X67243Y56789D03*
G01X71927Y45623D03*
G01X38160Y26466D03*
G01X70175Y51160D03*
G01X80665Y52870D03*
G01X58742Y56563D03*
G01X15288Y68064D03*
G01X44231Y48326D03*
G01X47233Y53647D03*
G01X64856Y41358D03*
G01X63014Y55646D03*
G01X16939Y68869D03*
G01X14351Y44538D03*
G01X23774Y61229D03*
M00*
M02*
