G04 Layer: TopSolderMaskLayer*
G04 EasyEDA v6.2.46, 2019-11-10T21:10:00+07:00*
G04 036f7757b27e478886c894ae7df38c4b,e5c1abbfa1e54b71a98531a1dec44753,10*
G04 Gerber Generator version 0.2*
G04 Scale: 100 percent, Rotated: No, Reflected: No *
G04 Dimensions in millimeters *
G04 leading zeros omitted , absolute positions ,3 integer and 3 decimal *
%FSLAX33Y33*%
%MOMM*%
G90*
G71D02*

%ADD45C,0.803199*%
%ADD47C,1.503197*%
%ADD49C,1.803197*%
%ADD54C,1.854200*%
%ADD59R,1.303198X2.703195*%
%ADD60R,3.403194X3.403194*%
%ADD61C,1.981200*%
%ADD63C,1.727200*%
%ADD64C,3.203194*%
%ADD66C,2.703195*%

%LPD*%
G54D45*
G01X4197Y49911D02*
G01X3277Y49911D01*
G01X4197Y48641D02*
G01X3277Y48641D01*
G01X4197Y47371D02*
G01X3277Y47371D01*
G01X4197Y46101D02*
G01X3277Y46101D01*
G01X9676Y49911D02*
G01X8756Y49911D01*
G01X9676Y48641D02*
G01X8756Y48641D01*
G01X9676Y47371D02*
G01X8756Y47371D01*
G01X9676Y46101D02*
G01X8756Y46101D01*
G01X79248Y54421D02*
G01X79248Y52721D01*
G01X77978Y54421D02*
G01X77978Y52721D01*
G01X76708Y54421D02*
G01X76708Y52721D01*
G01X75438Y54421D02*
G01X75438Y52721D01*
G01X74168Y54421D02*
G01X74168Y52721D01*
G01X72898Y54421D02*
G01X72898Y52721D01*
G01X71628Y54421D02*
G01X71628Y52721D01*
G01X70358Y54421D02*
G01X70358Y52721D01*
G01X69088Y54421D02*
G01X69088Y52721D01*
G01X67818Y54421D02*
G01X67818Y52721D01*
G01X66548Y54421D02*
G01X66548Y52721D01*
G01X65278Y54421D02*
G01X65278Y52721D01*
G01X64008Y54421D02*
G01X64008Y52721D01*
G01X62738Y54421D02*
G01X62738Y52721D01*
G01X79248Y44306D02*
G01X79248Y42606D01*
G01X77978Y44306D02*
G01X77978Y42606D01*
G01X76708Y44306D02*
G01X76708Y42606D01*
G01X75438Y44306D02*
G01X75438Y42606D01*
G01X74168Y44306D02*
G01X74168Y42606D01*
G01X72898Y44306D02*
G01X72898Y42606D01*
G01X71628Y44306D02*
G01X71628Y42606D01*
G01X70358Y44306D02*
G01X70358Y42606D01*
G01X69088Y44306D02*
G01X69088Y42606D01*
G01X67818Y44306D02*
G01X67818Y42606D01*
G01X66548Y44306D02*
G01X66548Y42606D01*
G01X65278Y44306D02*
G01X65278Y42606D01*
G01X64008Y44306D02*
G01X64008Y42606D01*
G01X62738Y44306D02*
G01X62738Y42606D01*
G01X24257Y22266D02*
G01X24257Y21066D01*
G01X25527Y22266D02*
G01X25527Y21066D01*
G01X26797Y22266D02*
G01X26797Y21066D01*
G01X28067Y22266D02*
G01X28067Y21066D01*
G01X29337Y22266D02*
G01X29337Y21066D01*
G01X30607Y22266D02*
G01X30607Y21066D01*
G01X31877Y22266D02*
G01X31877Y21066D01*
G01X33147Y22266D02*
G01X33147Y21066D01*
G01X24257Y28209D02*
G01X24257Y27009D01*
G01X25527Y28209D02*
G01X25527Y27009D01*
G01X26797Y28209D02*
G01X26797Y27009D01*
G01X28067Y28209D02*
G01X28067Y27009D01*
G01X29337Y28209D02*
G01X29337Y27009D01*
G01X30607Y28209D02*
G01X30607Y27009D01*
G01X31877Y28209D02*
G01X31877Y27009D01*
G01X33147Y28209D02*
G01X33147Y27009D01*
G36*
G01X18496Y47307D02*
G01X18496Y48958D01*
G01X19857Y48958D01*
G01X19857Y47307D01*
G01X18496Y47307D01*
G37*
G36*
G01X20528Y47307D02*
G01X20528Y48958D01*
G01X21889Y48958D01*
G01X21889Y47307D01*
G01X20528Y47307D01*
G37*
G54D47*
G01X28321Y34036D03*
G01X30861Y34036D03*
G01X19939Y34036D03*
G01X22479Y34036D03*
G36*
G01X25590Y46944D02*
G01X25590Y48305D01*
G01X27241Y48305D01*
G01X27241Y46944D01*
G01X25590Y46944D01*
G37*
G36*
G01X25590Y48976D02*
G01X25590Y50337D01*
G01X27241Y50337D01*
G01X27241Y48976D01*
G01X25590Y48976D01*
G37*
G54D49*
G01X23151Y41237D03*
G01X18250Y41237D03*
G36*
G01X58935Y25265D02*
G01X58935Y26294D01*
G01X60192Y26294D01*
G01X60192Y25265D01*
G01X58935Y25265D01*
G37*
G36*
G01X56903Y24604D02*
G01X56903Y25633D01*
G01X58160Y25633D01*
G01X58160Y24604D01*
G01X56903Y24604D01*
G37*
G36*
G01X56903Y25925D02*
G01X56903Y26954D01*
G01X58160Y26954D01*
G01X58160Y25925D01*
G01X56903Y25925D01*
G37*
G36*
G01X84046Y48379D02*
G01X84046Y49481D01*
G01X85625Y49481D01*
G01X85625Y48379D01*
G01X84046Y48379D01*
G37*
G36*
G01X84046Y47089D02*
G01X84046Y48191D01*
G01X85625Y48191D01*
G01X85625Y47089D01*
G01X84046Y47089D01*
G37*
G36*
G01X84046Y45803D02*
G01X84046Y46906D01*
G01X85625Y46906D01*
G01X85625Y45803D01*
G01X84046Y45803D01*
G37*
G36*
G01X84046Y44513D02*
G01X84046Y45615D01*
G01X85625Y45615D01*
G01X85625Y44513D01*
G01X84046Y44513D01*
G37*
G36*
G01X87292Y44513D02*
G01X87292Y45615D01*
G01X88872Y45615D01*
G01X88872Y44513D01*
G01X87292Y44513D01*
G37*
G36*
G01X87292Y45803D02*
G01X87292Y46906D01*
G01X88872Y46906D01*
G01X88872Y45803D01*
G01X87292Y45803D01*
G37*
G36*
G01X87292Y47089D02*
G01X87292Y48191D01*
G01X88872Y48191D01*
G01X88872Y47089D01*
G01X87292Y47089D01*
G37*
G36*
G01X87292Y48379D02*
G01X87292Y49481D01*
G01X88872Y49481D01*
G01X88872Y48379D01*
G01X87292Y48379D01*
G37*
G36*
G01X58209Y47073D02*
G01X58209Y48176D01*
G01X59789Y48176D01*
G01X59789Y47073D01*
G01X58209Y47073D01*
G37*
G36*
G01X58209Y48364D02*
G01X58209Y49466D01*
G01X59789Y49466D01*
G01X59789Y48364D01*
G01X58209Y48364D01*
G37*
G36*
G01X58209Y49649D02*
G01X58209Y50751D01*
G01X59789Y50751D01*
G01X59789Y49649D01*
G01X58209Y49649D01*
G37*
G36*
G01X58209Y50939D02*
G01X58209Y52042D01*
G01X59789Y52042D01*
G01X59789Y50939D01*
G01X58209Y50939D01*
G37*
G36*
G01X54963Y50939D02*
G01X54963Y52042D01*
G01X56542Y52042D01*
G01X56542Y50939D01*
G01X54963Y50939D01*
G37*
G36*
G01X54963Y49649D02*
G01X54963Y50751D01*
G01X56542Y50751D01*
G01X56542Y49649D01*
G01X54963Y49649D01*
G37*
G36*
G01X54963Y48364D02*
G01X54963Y49466D01*
G01X56542Y49466D01*
G01X56542Y48364D01*
G01X54963Y48364D01*
G37*
G36*
G01X54963Y47073D02*
G01X54963Y48176D01*
G01X56542Y48176D01*
G01X56542Y47073D01*
G01X54963Y47073D01*
G37*
G36*
G01X55707Y38290D02*
G01X55707Y39941D01*
G01X57068Y39941D01*
G01X57068Y38290D01*
G01X55707Y38290D01*
G37*
G36*
G01X53675Y38290D02*
G01X53675Y39941D01*
G01X55036Y39941D01*
G01X55036Y38290D01*
G01X53675Y38290D01*
G37*
G36*
G01X32778Y54429D02*
G01X32778Y58132D01*
G01X33782Y58132D01*
G01X33782Y54429D01*
G01X32778Y54429D01*
G37*
G36*
G01X32768Y60485D02*
G01X32768Y64188D01*
G01X33771Y64188D01*
G01X33771Y60485D01*
G01X32768Y60485D01*
G37*
G36*
G01X36903Y10795D02*
G01X36903Y11798D01*
G01X40606Y11798D01*
G01X40606Y10795D01*
G01X36903Y10795D01*
G37*
G36*
G01X42959Y10805D02*
G01X42959Y11808D01*
G01X46662Y11808D01*
G01X46662Y10805D01*
G01X42959Y10805D01*
G37*
G36*
G01X41483Y47561D02*
G01X41483Y49212D01*
G01X42844Y49212D01*
G01X42844Y47561D01*
G01X41483Y47561D01*
G37*
G36*
G01X39451Y47561D02*
G01X39451Y49212D01*
G01X40812Y49212D01*
G01X40812Y47561D01*
G01X39451Y47561D01*
G37*
G36*
G01X72344Y70675D02*
G01X72344Y72326D01*
G01X73705Y72326D01*
G01X73705Y70675D01*
G01X72344Y70675D01*
G37*
G36*
G01X70312Y70675D02*
G01X70312Y72326D01*
G01X71673Y72326D01*
G01X71673Y70675D01*
G01X70312Y70675D01*
G37*
G36*
G01X96220Y70675D02*
G01X96220Y72326D01*
G01X97581Y72326D01*
G01X97581Y70675D01*
G01X96220Y70675D01*
G37*
G36*
G01X94188Y70675D02*
G01X94188Y72326D01*
G01X95549Y72326D01*
G01X95549Y70675D01*
G01X94188Y70675D01*
G37*
G36*
G01X45039Y52514D02*
G01X45039Y54165D01*
G01X46400Y54165D01*
G01X46400Y52514D01*
G01X45039Y52514D01*
G37*
G36*
G01X43007Y52514D02*
G01X43007Y54165D01*
G01X44368Y54165D01*
G01X44368Y52514D01*
G01X43007Y52514D01*
G37*
G36*
G01X100411Y48069D02*
G01X100411Y49720D01*
G01X101772Y49720D01*
G01X101772Y48069D01*
G01X100411Y48069D01*
G37*
G36*
G01X102443Y48069D02*
G01X102443Y49720D01*
G01X103804Y49720D01*
G01X103804Y48069D01*
G01X102443Y48069D01*
G37*
G36*
G01X38798Y31450D02*
G01X38798Y32811D01*
G01X40449Y32811D01*
G01X40449Y31450D01*
G01X38798Y31450D01*
G37*
G36*
G01X38798Y29418D02*
G01X38798Y30779D01*
G01X40449Y30779D01*
G01X40449Y29418D01*
G01X38798Y29418D01*
G37*
G36*
G01X103568Y29291D02*
G01X103568Y30652D01*
G01X105219Y30652D01*
G01X105219Y29291D01*
G01X103568Y29291D01*
G37*
G36*
G01X103568Y27259D02*
G01X103568Y28620D01*
G01X105219Y28620D01*
G01X105219Y27259D01*
G01X103568Y27259D01*
G37*
G54D54*
G01X46482Y66167D03*
G01X49022Y66167D03*
G01X73025Y66294D03*
G01X70485Y66294D03*
G01X97536Y66294D03*
G01X94996Y66294D03*
G01X46101Y48895D03*
G01X48641Y48895D03*
G01X97536Y48895D03*
G01X94996Y48895D03*
G01X46482Y31496D03*
G01X49022Y31496D03*
G01X97409Y31623D03*
G01X94869Y31623D03*
G54D49*
G01X13589Y34163D03*
G01X5969Y34163D03*
G36*
G01X42572Y59405D02*
G01X42572Y62006D01*
G01X44277Y62006D01*
G01X44277Y59405D01*
G01X42572Y59405D01*
G37*
G36*
G01X50972Y59405D02*
G01X50972Y62006D01*
G01X52677Y62006D01*
G01X52677Y59405D01*
G01X50972Y59405D01*
G37*
G36*
G01X66862Y59405D02*
G01X66862Y62006D01*
G01X68564Y62006D01*
G01X68564Y59405D01*
G01X66862Y59405D01*
G37*
G36*
G01X75262Y59405D02*
G01X75262Y62006D01*
G01X76964Y62006D01*
G01X76964Y59405D01*
G01X75262Y59405D01*
G37*
G36*
G01X91150Y59405D02*
G01X91150Y62006D01*
G01X92854Y62006D01*
G01X92854Y59405D01*
G01X91150Y59405D01*
G37*
G36*
G01X99550Y59405D02*
G01X99550Y62006D01*
G01X101254Y62006D01*
G01X101254Y59405D01*
G01X99550Y59405D01*
G37*
G36*
G01X42572Y41973D02*
G01X42572Y44577D01*
G01X44277Y44577D01*
G01X44277Y41973D01*
G01X42572Y41973D01*
G37*
G36*
G01X50972Y41973D02*
G01X50972Y44577D01*
G01X52677Y44577D01*
G01X52677Y41973D01*
G01X50972Y41973D01*
G37*
G36*
G01X91150Y24544D02*
G01X91150Y27144D01*
G01X92854Y27144D01*
G01X92854Y24544D01*
G01X91150Y24544D01*
G37*
G36*
G01X99550Y24544D02*
G01X99550Y27144D01*
G01X101254Y27144D01*
G01X101254Y24544D01*
G01X99550Y24544D01*
G37*
G36*
G01X42572Y24544D02*
G01X42572Y27144D01*
G01X44277Y27144D01*
G01X44277Y24544D01*
G01X42572Y24544D01*
G37*
G36*
G01X50972Y24544D02*
G01X50972Y27144D01*
G01X52677Y27144D01*
G01X52677Y24544D01*
G01X50972Y24544D01*
G37*
G36*
G01X91150Y41973D02*
G01X91150Y44577D01*
G01X92854Y44577D01*
G01X92854Y41973D01*
G01X91150Y41973D01*
G37*
G36*
G01X99550Y41973D02*
G01X99550Y44577D01*
G01X101254Y44577D01*
G01X101254Y41973D01*
G01X99550Y41973D01*
G37*
G01X63627Y30988D03*
G01X66167Y30988D03*
G01X68707Y30988D03*
G01X71247Y30988D03*
G01X73787Y30988D03*
G01X76327Y30988D03*
G01X78867Y30988D03*
G01X81407Y30988D03*
G01X81407Y38608D03*
G01X78867Y38608D03*
G01X76327Y38608D03*
G01X73787Y38608D03*
G01X71247Y38608D03*
G01X68707Y38608D03*
G01X66167Y38608D03*
G01X63627Y38608D03*
G36*
G01X29126Y43530D02*
G01X29126Y45133D01*
G01X31579Y45133D01*
G01X31579Y43530D01*
G01X29126Y43530D01*
G37*
G36*
G01X35925Y43530D02*
G01X35925Y45133D01*
G01X38379Y45133D01*
G01X38379Y43530D01*
G01X35925Y43530D01*
G37*
G36*
G01X29126Y39329D02*
G01X29126Y40934D01*
G01X31579Y40934D01*
G01X31579Y39329D01*
G01X29126Y39329D01*
G37*
G36*
G01X35925Y39329D02*
G01X35925Y40934D01*
G01X38379Y40934D01*
G01X38379Y39329D01*
G01X35925Y39329D01*
G37*
G36*
G01X1912Y21066D02*
G01X1912Y22468D01*
G01X4315Y22468D01*
G01X4315Y21066D01*
G01X1912Y21066D01*
G37*
G36*
G01X1907Y25791D02*
G01X1907Y27193D01*
G01X4310Y27193D01*
G01X4310Y25791D01*
G01X1907Y25791D01*
G37*
G36*
G01X7510Y21028D02*
G01X7510Y27231D01*
G01X14213Y27231D01*
G01X14213Y21028D01*
G01X7510Y21028D01*
G37*
G36*
G01X10162Y53766D02*
G01X10162Y56469D01*
G01X11468Y56469D01*
G01X11468Y53766D01*
G01X10162Y53766D01*
G37*
G36*
G01X12174Y53766D02*
G01X12174Y56469D01*
G01X13477Y56469D01*
G01X13477Y53766D01*
G01X12174Y53766D01*
G37*
G54D59*
G01X14819Y55120D03*
G36*
G01X16177Y53766D02*
G01X16177Y56471D01*
G01X17480Y56471D01*
G01X17480Y53766D01*
G01X16177Y53766D01*
G37*
G36*
G01X18173Y53766D02*
G01X18173Y56469D01*
G01X19476Y56469D01*
G01X19476Y53766D01*
G01X18173Y53766D01*
G37*
G36*
G01X20167Y53766D02*
G01X20167Y56471D01*
G01X21470Y56471D01*
G01X21470Y53766D01*
G01X20167Y53766D01*
G37*
G36*
G01X22171Y53766D02*
G01X22171Y56469D01*
G01X23474Y56469D01*
G01X23474Y53766D01*
G01X22171Y53766D01*
G37*
G36*
G01X24168Y53766D02*
G01X24168Y56471D01*
G01X25471Y56471D01*
G01X25471Y53766D01*
G01X24168Y53766D01*
G37*
G36*
G01X10162Y69768D02*
G01X10162Y72471D01*
G01X11468Y72471D01*
G01X11468Y69768D01*
G01X10162Y69768D01*
G37*
G36*
G01X12164Y69768D02*
G01X12164Y72471D01*
G01X13467Y72471D01*
G01X13467Y69768D01*
G01X12164Y69768D01*
G37*
G36*
G01X14163Y69771D02*
G01X14163Y72473D01*
G01X15466Y72473D01*
G01X15466Y69771D01*
G01X14163Y69771D01*
G37*
G36*
G01X16162Y69768D02*
G01X16162Y72473D01*
G01X17465Y72473D01*
G01X17465Y69768D01*
G01X16162Y69768D01*
G37*
G36*
G01X18163Y69768D02*
G01X18163Y72471D01*
G01X19466Y72471D01*
G01X19466Y69768D01*
G01X18163Y69768D01*
G37*
G36*
G01X20162Y69768D02*
G01X20162Y72473D01*
G01X21468Y72473D01*
G01X21468Y69768D01*
G01X20162Y69768D01*
G37*
G36*
G01X22164Y69768D02*
G01X22164Y72471D01*
G01X23467Y72471D01*
G01X23467Y69768D01*
G01X22164Y69768D01*
G37*
G36*
G01X24160Y69768D02*
G01X24160Y72471D01*
G01X25466Y72471D01*
G01X25466Y69768D01*
G01X24160Y69768D01*
G37*
G54D60*
G01X15641Y62992D03*
G54D61*
G01X72898Y18933D03*
G01X72898Y26532D03*
G36*
G01X101409Y12781D02*
G01X101409Y14142D01*
G01X103060Y14142D01*
G01X103060Y12781D01*
G01X101409Y12781D01*
G37*
G36*
G01X101409Y14813D02*
G01X101409Y16174D01*
G01X103060Y16174D01*
G01X103060Y14813D01*
G01X101409Y14813D01*
G37*
G36*
G01X95443Y12631D02*
G01X95443Y13832D01*
G01X96194Y13832D01*
G01X96194Y12631D01*
G01X95443Y12631D01*
G37*
G36*
G01X93543Y12631D02*
G01X93543Y13832D01*
G01X94294Y13832D01*
G01X94294Y12631D01*
G01X93543Y12631D01*
G37*
G36*
G01X93543Y15631D02*
G01X93543Y16832D01*
G01X94294Y16832D01*
G01X94294Y15631D01*
G01X93543Y15631D01*
G37*
G36*
G01X94493Y15631D02*
G01X94493Y16832D01*
G01X95244Y16832D01*
G01X95244Y15631D01*
G01X94493Y15631D01*
G37*
G36*
G01X95443Y15631D02*
G01X95443Y16832D01*
G01X96194Y16832D01*
G01X96194Y15631D01*
G01X95443Y15631D01*
G37*
G54D63*
G01X15308Y10306D03*
G01X15308Y12806D03*
G01X13308Y12806D03*
G01X13308Y10306D03*
G54D64*
G01X10598Y5536D03*
G01X10598Y17576D03*
G54D63*
G01X31831Y68199D03*
G01X33831Y68199D03*
G01X35831Y68199D03*
G01X37831Y68199D03*
G01X39831Y68199D03*
G01X41831Y68199D03*
G36*
G01X42966Y67335D02*
G01X42966Y69062D01*
G01X44693Y69062D01*
G01X44693Y67335D01*
G01X42966Y67335D01*
G37*
G01X29831Y68199D03*
G54D66*
G01X84763Y10130D03*
G01X84763Y6380D03*
G01X59763Y10130D03*
M00*
M02*
