G04 Layer: BottomSolderMaskLayer*
G04 EasyEDA v6.2.46, 2019-11-10T21:10:00+07:00*
G04 036f7757b27e478886c894ae7df38c4b,e5c1abbfa1e54b71a98531a1dec44753,10*
G04 Gerber Generator version 0.2*
G04 Scale: 100 percent, Rotated: No, Reflected: No *
G04 Dimensions in millimeters *
G04 leading zeros omitted , absolute positions ,3 integer and 3 decimal *
%FSLAX33Y33*%
%MOMM*%
G90*
G71D02*

%ADD47C,1.503197*%
%ADD49C,1.803197*%
%ADD54C,1.854200*%
%ADD61C,1.981200*%
%ADD63C,1.727200*%
%ADD64C,3.203194*%
%ADD66C,2.703195*%

%LPD*%
G54D47*
G01X28321Y34036D03*
G01X30861Y34036D03*
G01X19939Y34036D03*
G01X22479Y34036D03*
G54D49*
G01X23151Y41237D03*
G01X18250Y41237D03*
G54D54*
G01X46482Y66167D03*
G01X49022Y66167D03*
G01X73025Y66294D03*
G01X70485Y66294D03*
G01X97536Y66294D03*
G01X94996Y66294D03*
G01X46101Y48895D03*
G01X48641Y48895D03*
G01X97536Y48895D03*
G01X94996Y48895D03*
G01X46482Y31496D03*
G01X49022Y31496D03*
G01X97409Y31623D03*
G01X94869Y31623D03*
G54D49*
G01X13589Y34163D03*
G01X5969Y34163D03*
G01X63627Y30988D03*
G01X66167Y30988D03*
G01X68707Y30988D03*
G01X71247Y30988D03*
G01X73787Y30988D03*
G01X76327Y30988D03*
G01X78867Y30988D03*
G01X81407Y30988D03*
G01X81407Y38608D03*
G01X78867Y38608D03*
G01X76327Y38608D03*
G01X73787Y38608D03*
G01X71247Y38608D03*
G01X68707Y38608D03*
G01X66167Y38608D03*
G01X63627Y38608D03*
G54D61*
G01X72898Y18933D03*
G01X72898Y26532D03*
G54D63*
G01X15308Y10306D03*
G01X15308Y12806D03*
G01X13308Y12806D03*
G01X13308Y10306D03*
G54D64*
G01X10598Y5536D03*
G01X10598Y17576D03*
G54D63*
G01X31831Y68199D03*
G01X33831Y68199D03*
G01X35831Y68199D03*
G01X37831Y68199D03*
G01X39831Y68199D03*
G01X41831Y68199D03*
G36*
G01X42966Y67335D02*
G01X42966Y69062D01*
G01X44693Y69062D01*
G01X44693Y67335D01*
G01X42966Y67335D01*
G37*
G01X29831Y68199D03*
G54D66*
G01X84763Y10130D03*
G01X84763Y6380D03*
G01X59763Y10130D03*
M00*
M02*
